<svg width="165" height="22" viewBox="0 0 165 22" fill="none" xmlns="http://www.w3.org/2000/svg">
<path d="M15.68 21H10.336L9.728 17.864H5.952L5.344 21H0.256L3.904 1.128H12.032L15.68 21ZM9.12 14.12L8 7.016H7.776L6.656 14.12H9.12ZM30.2095 6.792C31.3828 5.78933 32.6735 5.288 34.0815 5.288C35.4895 5.288 36.4708 5.61867 37.0255 6.28C37.6015 6.92 37.8895 7.89067 37.8895 9.192V21H32.4495V11.016C32.4495 10.4827 32.2148 10.216 31.7455 10.216C31.1482 10.216 30.6468 10.3653 30.2415 10.664V21H24.8015V11.016C24.8015 10.4827 24.5668 10.216 24.0975 10.216C23.5002 10.216 22.9988 10.3653 22.5935 10.664V21H17.2175V5.672H22.1135L22.4335 6.792H22.5615C23.7348 5.78933 25.1215 5.288 26.7215 5.288C28.3428 5.288 29.3988 5.88533 29.8895 7.08L30.2095 6.792ZM48.3232 5.32C50.3286 5.32 51.6619 5.90667 52.3232 7.08C52.9846 8.232 53.3153 10.2267 53.3153 13.064C53.3153 15.88 52.9633 17.96 52.2592 19.304C51.5552 20.648 50.1792 21.32 48.1312 21.32C46.5312 21.32 45.4112 20.904 44.7712 20.072H44.6432L44.3232 21H40.1312V0.487999H45.4752V6.024H45.6032C46.3072 5.55467 47.2139 5.32 48.3232 5.32ZM47.7472 16.2C47.8326 15.816 47.8859 15.4427 47.9072 15.08C47.9286 14.7173 47.9392 14.0347 47.9392 13.032C47.9392 12.008 47.8646 11.2293 47.7153 10.696C47.5659 10.1413 47.2566 9.864 46.7872 9.864C46.3392 9.864 45.8912 9.992 45.4432 10.248V16.872C45.8486 17.064 46.2326 17.16 46.5952 17.16C46.9792 17.16 47.2459 17.096 47.3952 16.968C47.5659 16.8187 47.6832 16.5627 47.7472 16.2ZM59.1655 21.32C56.6268 21.32 55.3575 19.912 55.3575 17.096V5.672H60.7975V15.784C60.7975 16.3173 61.0322 16.584 61.5015 16.584C62.0988 16.584 62.6002 16.4347 63.0055 16.136V5.672H68.3815V20.936H63.2935V19.816H63.1655C61.9922 20.8187 60.6588 21.32 59.1655 21.32ZM75.991 11.272C75.991 13.1493 76.1723 14.4933 76.535 15.304C76.919 16.0933 77.5377 16.488 78.391 16.488C79.2443 16.488 80.4497 16.2853 82.007 15.88L82.839 20.392C81.1537 21.0107 79.4577 21.32 77.751 21.32C75.191 21.32 73.3243 20.4773 72.151 18.792C70.999 17.0853 70.423 14.5573 70.423 11.208C70.423 7.83733 71.031 5.26667 72.247 3.496C73.463 1.704 75.447 0.807999 78.199 0.807999C79.8203 0.807999 81.367 1.14933 82.839 1.832L81.975 6.792C80.311 6.23733 79.1483 5.96 78.487 5.96C77.5483 5.96 76.8977 6.376 76.535 7.208C76.1723 8.01867 75.991 9.37333 75.991 11.272ZM83.804 13.288C83.804 10.472 84.3373 8.43467 85.404 7.176C86.492 5.91733 88.1773 5.288 90.46 5.288C92.764 5.288 94.4387 5.90667 95.484 7.144C96.5293 8.38133 97.052 10.4187 97.052 13.256C97.052 16.072 96.54 18.12 95.516 19.4C94.492 20.68 92.8173 21.32 90.492 21.32C88.1667 21.32 86.4707 20.68 85.404 19.4C84.3373 18.12 83.804 16.0827 83.804 13.288ZM91.484 10.248C91.356 9.82133 91.0147 9.608 90.46 9.608C89.9053 9.608 89.5533 9.82133 89.404 10.248C89.2547 10.6747 89.18 11.5707 89.18 12.936V13.704C89.18 15.2187 89.2547 16.2 89.404 16.648C89.5533 17.096 89.8947 17.32 90.428 17.32C90.9827 17.32 91.3347 17.096 91.484 16.648C91.6333 16.2 91.708 15.2827 91.708 13.896V12.968C91.708 11.5813 91.6333 10.6747 91.484 10.248ZM104.38 6.792C105.554 5.78933 106.844 5.288 108.252 5.288C109.66 5.288 110.642 5.61867 111.196 6.28C111.772 6.92 112.06 7.89067 112.06 9.192V21H106.62V11.016C106.62 10.4827 106.386 10.216 105.916 10.216C105.319 10.216 104.818 10.3653 104.412 10.664V21H99.0362V5.672H103.932L104.252 6.792H104.38ZM119.638 6.792C120.811 5.78933 122.102 5.288 123.51 5.288C124.918 5.288 125.899 5.61867 126.454 6.28C127.03 6.92 127.318 7.89067 127.318 9.192V21H121.878V11.016C121.878 10.4827 121.643 10.216 121.174 10.216C120.576 10.216 120.075 10.3653 119.67 10.664V21H114.294V5.672H119.19L119.51 6.792H119.638ZM135.951 9.864C135.397 9.864 135.034 10.056 134.863 10.44C134.693 10.8027 134.607 11.368 134.607 12.136H137.391V11.368C137.391 10.3653 136.911 9.864 135.951 9.864ZM136.079 5.288C138.277 5.288 139.845 5.82133 140.783 6.888C141.743 7.93333 142.223 9.43733 142.223 11.4C142.223 11.656 142.149 12.808 141.999 14.856H134.703C134.703 16.456 135.439 17.256 136.911 17.256C137.615 17.256 138.991 17.0107 141.039 16.52L141.487 20.488C139.695 21.0427 137.903 21.32 136.111 21.32C133.914 21.32 132.229 20.6053 131.055 19.176C129.882 17.7253 129.295 15.7627 129.295 13.288C129.295 7.95467 131.557 5.288 136.079 5.288ZM150.716 9.96C150.097 9.96 149.681 10.248 149.468 10.824C149.254 11.3787 149.148 12.2533 149.148 13.448C149.148 14.6427 149.244 15.5067 149.436 16.04C149.649 16.5733 150.076 16.84 150.716 16.84C151.377 16.84 152.23 16.7227 153.276 16.488L153.852 20.584C152.38 21.0747 151.068 21.32 149.916 21.32C147.889 21.32 146.353 20.6373 145.308 19.272C144.284 17.9067 143.772 15.9973 143.772 13.544C143.772 11.0907 144.305 9.10667 145.372 7.592C146.438 6.056 147.985 5.288 150.012 5.288C151.526 5.288 152.892 5.544 154.108 6.056L153.532 10.76C152.294 10.2267 151.356 9.96 150.716 9.96ZM164.019 21.032C162.44 21.224 161.064 21.32 159.891 21.32C158.739 21.32 157.832 21.0213 157.171 20.424C156.531 19.8053 156.211 18.7493 156.211 17.256V9.832H154.675V5.864H156.467L156.755 2.92H161.587V5.864H164.435L164.211 9.832H161.555V16.2C161.555 16.648 161.768 16.872 162.195 16.872C162.237 16.872 162.899 16.84 164.179 16.776L164.019 21.032Z" fill="#331B3B"/>
</svg>
